<svg width="22" height="23" viewBox="0 0 22 23" fill="none" xmlns="http://www.w3.org/2000/svg">
<path d="M7.14493 12.6922C7.84658 12.6922 8.51949 12.971 9.01563 13.4671C9.51177 13.9632 9.7905 14.6361 9.7905 15.3378V19.4531C9.7905 20.1548 9.51177 20.8277 9.01563 21.3238C8.51949 21.82 7.84658 22.0987 7.14493 22.0987H3.0296C2.32795 22.0987 1.65504 21.82 1.1589 21.3238C0.662762 20.8277 0.384033 20.1548 0.384033 19.4531V15.3378C0.384033 14.6361 0.662762 13.9632 1.1589 13.4671C1.65504 12.971 2.32795 12.6922 3.0296 12.6922H7.14493ZM18.903 12.6922C19.6047 12.6922 20.2776 12.971 20.7737 13.4671C21.2698 13.9632 21.5486 14.6361 21.5486 15.3378V19.4531C21.5486 20.1548 21.2698 20.8277 20.7737 21.3238C20.2776 21.82 19.6047 22.0987 18.903 22.0987H14.7877C14.086 22.0987 13.4131 21.82 12.917 21.3238C12.4208 20.8277 12.1421 20.1548 12.1421 19.4531V15.3378C12.1421 14.6361 12.4208 13.9632 12.917 13.4671C13.4131 12.971 14.086 12.6922 14.7877 12.6922H18.903ZM7.14493 0.934143C7.84658 0.934143 8.51949 1.21287 9.01563 1.70901C9.51177 2.20515 9.7905 2.87806 9.7905 3.57971V7.69504C9.7905 8.39669 9.51177 9.0696 9.01563 9.56574C8.51949 10.0619 7.84658 10.3406 7.14493 10.3406H3.0296C2.32795 10.3406 1.65504 10.0619 1.1589 9.56574C0.662762 9.0696 0.384033 8.39669 0.384033 7.69504V3.57971C0.384033 2.87806 0.662762 2.20515 1.1589 1.70901C1.65504 1.21287 2.32795 0.934143 3.0296 0.934143H7.14493ZM18.903 0.934143C19.6047 0.934143 20.2776 1.21287 20.7737 1.70901C21.2698 2.20515 21.5486 2.87806 21.5486 3.57971V7.69504C21.5486 8.39669 21.2698 9.0696 20.7737 9.56574C20.2776 10.0619 19.6047 10.3406 18.903 10.3406H14.7877C14.086 10.3406 13.4131 10.0619 12.917 9.56574C12.4208 9.0696 12.1421 8.39669 12.1421 7.69504V3.57971C12.1421 2.87806 12.4208 2.20515 12.917 1.70901C13.4131 1.21287 14.086 0.934143 14.7877 0.934143H18.903Z" fill="#6C7275"/>
<path d="M0.384033 4.46157H9.7882V18.5713H0.384033V4.46157Z" fill="#6C7275"/>
<path d="M12.1444 4.46157H21.5486V18.5713H12.1444V4.46157Z" fill="#6C7275"/>
</svg>
