<svg width="22" height="22" viewBox="0 0 22 22" fill="none" xmlns="http://www.w3.org/2000/svg">
<path d="M7.05777 12.2801C7.75942 12.2801 8.43233 12.5588 8.92847 13.055C9.42461 13.5511 9.70334 14.224 9.70334 14.9257V19.041C9.70334 19.7427 9.42461 20.4156 8.92847 20.9117C8.43233 21.4078 7.75942 21.6866 7.05777 21.6866H2.94244C2.24079 21.6866 1.56788 21.4078 1.07174 20.9117C0.575604 20.4156 0.296875 19.7427 0.296875 19.041V14.9257C0.296875 14.224 0.575604 13.5511 1.07174 13.055C1.56788 12.5588 2.24079 12.2801 2.94244 12.2801H7.05777ZM18.8159 12.2801C19.5175 12.2801 20.1904 12.5588 20.6865 13.055C21.1827 13.5511 21.4614 14.224 21.4614 14.9257V19.041C21.4614 19.7427 21.1827 20.4156 20.6865 20.9117C20.1904 21.4078 19.5175 21.6866 18.8159 21.6866H14.7005C13.9989 21.6866 13.326 21.4078 12.8298 20.9117C12.3337 20.4156 12.055 19.7427 12.055 19.041V14.9257C12.055 14.224 12.3337 13.5511 12.8298 13.055C13.326 12.5588 13.9989 12.2801 14.7005 12.2801H18.8159ZM7.05777 0.522034C7.75942 0.522034 8.43233 0.800762 8.92847 1.2969C9.42461 1.79304 9.70334 2.46595 9.70334 3.1676V7.28293C9.70334 7.98458 9.42461 8.65749 8.92847 9.15363C8.43233 9.64977 7.75942 9.9285 7.05777 9.9285H2.94244C2.24079 9.9285 1.56788 9.64977 1.07174 9.15363C0.575604 8.65749 0.296875 7.98458 0.296875 7.28293V3.1676C0.296875 2.46595 0.575604 1.79304 1.07174 1.2969C1.56788 0.800762 2.24079 0.522034 2.94244 0.522034H7.05777ZM18.8159 0.522034C19.5175 0.522034 20.1904 0.800762 20.6865 1.2969C21.1827 1.79304 21.4614 2.46595 21.4614 3.1676V7.28293C21.4614 7.98458 21.1827 8.65749 20.6865 9.15363C20.1904 9.64977 19.5175 9.9285 18.8159 9.9285H14.7005C13.9989 9.9285 13.326 9.64977 12.8298 9.15363C12.3337 8.65749 12.055 7.98458 12.055 7.28293V3.1676C12.055 2.46595 12.3337 1.79304 12.8298 1.2969C13.326 0.800762 13.9989 0.522034 14.7005 0.522034H18.8159Z" fill="black"/>
</svg>
